<?xml version="1.0" encoding="utf-8"?>
<!-- Generator: Adobe Illustrator 27.8.1, SVG Export Plug-In . SVG Version: 6.00 Build 0)  -->
<svg version="1.1" id="Capa_1" xmlns="http://www.w3.org/2000/svg" xmlns:xlink="http://www.w3.org/1999/xlink" x="0px" y="0px"
	 viewBox="0 0 66.3 66.3" style="enable-background:new 0 0 66.3 66.3;" xml:space="preserve">
<style type="text/css">
	.st0{fill:#211B16;}
	.st1{fill:#FFFFFF;}
	.st2{fill:#FAFAFA;}
	.st3{fill:#D1D1D1;}
	.st4{fill:#CFCFCF;}
	.st5{fill:#1C1C1C;}
</style>
<g>
	<path class="st0" d="M33.1,0C14.9,0,0,14.9,0,33.1c0,18.3,14.9,33.1,33.1,33.1c18.3,0,33.1-14.9,33.1-33.1C66.3,14.9,51.4,0,33.1,0
		L33.1,0z"/>
	<path class="st1" d="M42.1,34.3h-5.8v20.8h-8.7V34.3h-4.1v-7.4h4.1v-4.8c0-3.4,1.6-8.7,8.7-8.7l6.4,0v7.1h-4.7
		c-0.8,0-1.8,0.4-1.8,2V27h6.6L42.1,34.3z"/>
</g>
</svg>
