<?xml version="1.0" encoding="utf-8"?>
<!-- Generator: Adobe Illustrator 27.8.1, SVG Export Plug-In . SVG Version: 6.00 Build 0)  -->
<svg version="1.1" id="Capa_1" xmlns="http://www.w3.org/2000/svg" xmlns:xlink="http://www.w3.org/1999/xlink" x="0px" y="0px"
	 viewBox="0 0 67.3 67.3" style="enable-background:new 0 0 67.3 67.3;" xml:space="preserve">
<style type="text/css">
	.st0{fill:#211B16;}
	.st1{fill:#FFFFFF;}
	.st2{fill:#FAFAFA;}
	.st3{fill:#D1D1D1;}
	.st4{fill:#CFCFCF;}
	.st5{fill:#1C1C1C;}
</style>
<g>
	<g>
		<g>
			<path class="st0" d="M33.6,0C15.1,0,0,15.1,0,33.6c0,18.6,15.1,33.7,33.6,33.7c18.6,0,33.7-15.1,33.7-33.7
				C67.3,15.1,52.2,0,33.6,0L33.6,0z M48.7,26"/>
		</g>
	</g>
	<g>
		<circle class="st1" cx="44.6" cy="23.7" r="2.4"/>
		<path class="st1" d="M33.8,23.5c-5.6,0-10.2,4.6-10.2,10.2s4.6,10.2,10.2,10.2S44,39.2,44,33.6S39.4,23.5,33.8,23.5z M33.8,40.2
			c-3.6,0-6.5-2.9-6.5-6.5c0-3.6,2.9-6.5,6.5-6.5c3.6,0,6.5,2.9,6.5,6.5C40.3,37.2,37.4,40.2,33.8,40.2z"/>
		<path class="st1" d="M41.9,54.3H25.4c-6.8,0-12.4-5.6-12.4-12.4V25.4C13,18.6,18.6,13,25.4,13h16.5c6.8,0,12.4,5.6,12.4,12.4v16.5
			C54.3,48.7,48.7,54.3,41.9,54.3z M25.4,16.9c-4.7,0-8.5,3.8-8.5,8.5v16.5c0,4.7,3.8,8.5,8.5,8.5h16.5c4.7,0,8.5-3.8,8.5-8.5V25.4
			c0-4.7-3.8-8.5-8.5-8.5H25.4z"/>
	</g>
</g>
</svg>
