<?xml version="1.0" encoding="utf-8"?>
<!-- Generator: Adobe Illustrator 27.8.1, SVG Export Plug-In . SVG Version: 6.00 Build 0)  -->
<svg version="1.1" id="Capa_1" xmlns="http://www.w3.org/2000/svg" xmlns:xlink="http://www.w3.org/1999/xlink" x="0px" y="0px"
	 viewBox="0 0 66.3 66.3" style="enable-background:new 0 0 66.3 66.3;" xml:space="preserve">
<style type="text/css">
	.st0{fill:#211B16;}
	.st1{fill:#FFFFFF;}
	.st2{fill:#FAFAFA;}
	.st3{fill:#D1D1D1;}
	.st4{fill:#CFCFCF;}
	.st5{fill:#1C1C1C;}
</style>
<g>
	<circle class="st1" cx="30.5" cy="33.1" r="25.5"/>
	<path class="st0" d="M33.2,0c18.6,0,33.1,14.8,33.1,33.7c0,18.1-15.1,32.6-33.6,32.6C14.8,66.3,0,51.2,0,33.1C0,14.8,14.9,0,33.2,0
		z M50.3,22.5c-5.8-0.9-9.1-4.3-10.2-9.8c-2,0-3.9,0-5.9,0c0,0.7,0,1.2,0,1.8c0,8.7,0,17.4-0.1,26c0,0.8,0,1.5-0.2,2.3
		c-0.7,3.1-3.9,5.4-7,5c-3.3-0.4-5.8-3-5.9-6.3c0-3.2,2.4-6,5.7-6.4c0.5-0.1,0.9-0.1,1.4-0.1c0-2.1,0-4,0-6.1
		c-0.9,0.1-1.7,0-2.5,0.2c-6.7,1.1-11.4,7-10.8,13.6c0.7,6.8,6.5,11.9,13.1,11.6c6.9-0.4,12.1-5.8,12.1-12.7c0-4.8,0-9.7,0-14.5
		c0-0.6,0.1-1.1,0.1-2c2.8,3.2,6,4.9,10.1,4.5C50.3,27,50.3,24.8,50.3,22.5z"/>
</g>
</svg>
