<?xml version="1.0" encoding="utf-8"?>
<!-- Generator: Adobe Illustrator 27.8.1, SVG Export Plug-In . SVG Version: 6.00 Build 0)  -->
<svg version="1.1" id="Capa_1" xmlns="http://www.w3.org/2000/svg" xmlns:xlink="http://www.w3.org/1999/xlink" x="0px" y="0px"
	 viewBox="0 0 67.3 67.3" style="enable-background:new 0 0 67.3 67.3;" xml:space="preserve">
<style type="text/css">
	.st0{fill:#211B16;}
	.st1{fill:#FFFFFF;}
	.st2{fill:#FAFAFA;}
	.st3{fill:#D1D1D1;}
	.st4{fill:#CFCFCF;}
	.st5{fill:#1C1C1C;}
</style>
<g>
	<g>
		<g>
			<g>
				<g>
					<g>
						<path class="st0" d="M33.6,0C15.1,0,0,15.1,0,33.6c0,18.6,15.1,33.7,33.6,33.7c18.6,0,33.7-15.1,33.7-33.7
							C67.3,15.1,52.2,0,33.6,0L33.6,0z M48.7,26"/>
					</g>
				</g>
			</g>
		</g>
	</g>
	<g>
		<path class="st2" d="M51.2,14.7c-0.6,0.7-1.3,1.5-1.9,2.2c-0.7,0.8-1.4,1.6-2.1,2.4c-0.6,0.7-1.2,1.3-1.7,2
			c-0.6,0.7-1.1,1.3-1.7,2c-0.6,0.7-1.2,1.4-1.8,2.1c-0.6,0.6-1.1,1.3-1.7,1.9c-0.5,0.6-1,1.1-1.5,1.7c-0.3,0.3-0.6,0.6-0.8,1
			c0,0,0,0.2,0,0.2c1.2,1.7,2.4,3.5,3.6,5.2c1.3,1.9,2.7,3.8,4,5.8c1.6,2.3,3.1,4.6,4.7,6.9c0.7,1,1.4,2.1,2.2,3.1
			c-0.1,0-0.2,0-0.2,0c-3.4,0-6.8,0-10.2,0c-0.2,0-0.3-0.1-0.4-0.2c-1.2-1.7-2.3-3.4-3.5-5.2c-1.5-2.2-3.1-4.5-4.6-6.7
			c-0.5-0.7-0.9-1.3-1.4-2c-0.1-0.2-0.2-0.2-0.3,0c-0.8,0.9-1.6,1.9-2.4,2.9c-0.7,0.8-1.5,1.7-2.2,2.5c-0.7,0.8-1.4,1.6-2.1,2.4
			c-0.6,0.7-1.2,1.4-1.8,2c-0.7,0.8-1.4,1.7-2.1,2.5c-0.5,0.5-0.9,1.1-1.4,1.6c-0.1,0.1-0.2,0.1-0.3,0.1c-1,0-1.9,0-2.9,0
			c0,0,0,0-0.1,0c0.3-0.3,0.5-0.7,0.8-1c0.6-0.7,1.2-1.4,1.8-2.1c0.6-0.7,1.2-1.3,1.7-2c0.7-0.8,1.4-1.7,2.1-2.5
			c0.6-0.7,1.2-1.3,1.7-2c0.6-0.7,1.2-1.4,1.8-2.1c0.4-0.5,0.9-1,1.3-1.5c0.5-0.5,0.9-1.1,1.3-1.6c0.3-0.4,0.6-0.8,1-1.1
			c0.3-0.3,0.3-0.3,0.1-0.7c-1.3-1.9-2.5-3.7-3.8-5.6c-1.4-2-2.8-4.1-4.2-6.1c-1.2-1.8-2.5-3.6-3.7-5.4c-0.7-1-1.3-2-2-2.9
			c0,0,0.1,0,0.1-0.1c3.5,0,6.9,0,10.4,0c0.1,0,0.2,0.1,0.3,0.1c1.2,1.7,2.4,3.5,3.6,5.3c1.8,2.6,3.6,5.2,5.4,7.9
			c0,0.1,0.1,0.1,0.2,0.2c0.4-0.5,0.8-1,1.3-1.4c0.4-0.5,0.9-1,1.3-1.6c0.5-0.6,1-1.1,1.5-1.7c0.4-0.5,0.8-1,1.3-1.5
			c0.6-0.7,1.2-1.4,1.8-2.1c0.6-0.7,1.2-1.3,1.8-2c0.6-0.7,1.1-1.3,1.7-2c0.3-0.3,0.6-0.7,0.9-1c0.1-0.1,0.2-0.1,0.3-0.1
			C49.3,14.6,50.2,14.6,51.2,14.7C51.2,14.7,51.2,14.7,51.2,14.7z M47.9,49c0.1,0,0.1,0,0.2,0C48.1,49,48,49,48,48.9
			c0,0,0-0.1-0.1-0.1c-1.2-1.8-2.5-3.5-3.7-5.3c-1.6-2.3-3.2-4.6-4.9-7c-1.6-2.2-3.1-4.5-4.7-6.7c-1.1-1.6-2.2-3.1-3.3-4.7
			c-0.9-1.2-1.7-2.5-2.6-3.7c-1-1.4-2-2.8-2.9-4.2c-0.1-0.2-0.2-0.2-0.4-0.2c-1.4,0-2.9,0-4.3,0c-0.1,0-0.2,0-0.3,0
			c1.1,1.6,2.2,3.1,3.3,4.7c1.4,1.9,2.7,3.9,4,5.8c1.3,1.9,2.6,3.8,4,5.7c1.8,2.6,3.7,5.2,5.5,7.8c1.3,1.9,2.7,3.9,4,5.8
			c0.5,0.7,0.9,1.4,1.4,2c0.1,0.1,0.2,0.2,0.3,0.2C44.9,49.1,46.4,49.1,47.9,49z"/>
		<path class="st3" d="M16.7,14.6C16.7,14.7,16.7,14.7,16.7,14.6c-0.1,0-0.1,0-0.1,0C16.7,14.6,16.7,14.6,16.7,14.6z"/>
		<path class="st4" d="M51.2,14.7C51.2,14.7,51.2,14.7,51.2,14.7C51.2,14.6,51.2,14.6,51.2,14.7C51.3,14.7,51.3,14.7,51.2,14.7z"/>
		<path class="st5" d="M47.9,49c0,0,0-0.1,0.1-0.1c0,0,0.1,0.1,0.1,0.1C48,49,48,49,47.9,49z"/>
	</g>
</g>
</svg>
